inDegrees=yes
name=ik_.mot
DataType=double
version=3
OpenSimVersion=4.3-2021-08-27-4bc7ad9
endheader
time	pelvis_tilt	pelvis_list	pelvis_rotation	pelvis_tx	pelvis_ty	pelvis_tz	hip_flexion_r	hip_adduction_r	hip_rotation_r	knee_angle_r	knee_angle_r_beta	ankle_angle_r	subtalar_angle_r	mtp_angle_r	hip_flexion_l	hip_adduction_l	hip_rotation_l	knee_angle_l	knee_angle_l_beta	ankle_angle_l	subtalar_angle_l	mtp_angle_l	lumbar_extension	lumbar_bending	lumbar_rotation	arm_flex_r	arm_add_r	arm_rot_r	elbow_flex_r	pro_sup_r	wrist_flex_r	wrist_dev_r	arm_flex_l	arm_add_l	arm_rot_l	elbow_flex_l	pro_sup_l	wrist_flex_l	wrist_dev_l
0.01	0	0	0	0	0.9399999999999999	0	0	0	0	0	0	0	0	0	0	0	0	0	0	0	0	0	0	0	0	0	0	0	0	0	0	0	0	0	0	0	0	0	0
0.02	-0.008365760181395496	-0.002391521824549875	-0.02787130000444216	0	0.9399999999999999	0	43.32200835290376	-10.49101192441021	0	60.97653465032602	1.064241296104598	-5.18909369388059	0	0	43.32200835290376	-10.49101192441021	0	60.97653465032602	1.064241296104598	-5.18909369388059	0	0	-0.009823238256183073	0.009291680405781431	-0.01753711298534291	0	-10.81171113257264	0	75.03236115519685	44.72153979675643	0	0	-0.1318000431975552	0.3317939497897456	0.07897602582253863	0.3652296972813174	44.72153979675643	0	0
0.03	-0.03396044097803429	0.0296497128138192	-0.003846539918822119	0	0.9399999999999999	0	43.32222113775199	-10.49079484763064	0	60.97643734102999	1.06423959773699	-5.188984694437112	0	0	43.32222113775199	-10.49079484763064	0	60.97643734102999	1.06423959773699	-5.188984694437112	0	0	-0.003833881369625494	-0.03873069777336399	-0.04063178245567669	0	-10.81198361472248	0	75.03235707583661	44.72163719774893	0	0	-0.06357823122834295	0.5966527194882516	0.3408608282087326	0.3068904768902791	44.72163719774893	0	0
0.04	-0.03760562883767248	0.0330514912071356	-0.02731829096842383	0	0.9399999999999999	0	43.3226313508519	-10.49037505693642	0	60.97625026019893	1.06423633256052	-5.188773798500297	0	0	43.3226313508519	-10.49037505693642	0	60.97625026019893	1.06423633256052	-5.188773798500297	0	0	-0.06648097017616045	-0.01500315249427996	-0.01299343405564601	0	-10.81250791532395	0	75.03234921154309	44.7218254593844	0	0	0.05518050604176029	0.7486755862508521	0.8497848157359128	0.2590295474835562	44.7218254593844	0	0
0.05	-0.07497889765951221	0.02934136886493374	-0.009762419801738807	0	0.9399999999999999	0	43.32317424475377	-10.48981941873376	0	60.97600281874574	1.064232013892456	-5.188494694111847	0	0	43.32317424475377	-10.48981941873376	0	60.97600281874574	1.064232013892456	-5.188494694111847	0	0	-0.09810190948100052	0.007817456180619919	-0.01520099215238225	0	-10.81320156403124	0	75.03233880359711	44.72207465891791	0	0	0.3541839446399626	0.7971709518152965	1.410663136006875	0.1880811859093379	44.72207465891791	0	0
0.06	-0.1001570003651829	0.03525526545705559	-0.007779116130511654	0	0.9399999999999999	0	43.3234536859699	-10.48953368352009	0	60.97587543127513	1.064229790561668	-5.188351217278555	0	0	43.3234536859699	-10.48953368352009	0	60.97587543127513	1.064229790561668	-5.188351217278555	0	0	-0.08900710590434957	-0.00892119851239165	-0.03680425431428696	0	-10.81355868048439	0	75.03233344636128	44.72220284188356	0	0	0.2820777780445697	0.8797415507400539	1.517638171349364	0.1943949504576066	44.72220284188356	0	0
0.07000000000000001	-0.1227785197389944	0.04731390540871597	-0.03072013322915934	0	0.9399999999999999	0	43.32361380967058	-10.48937076272129	0	60.97580216189068	1.064228511769669	-5.188269493834706	0	0	43.32361380967058	-10.48937076272129	0	60.97580216189068	1.064228511769669	-5.188269493834706	0	0	-0.1171648312167636	-0.04942873489577009	0.01142146985220642	0	-10.81376387074091	0	75.03233037657803	44.72227599612143	0	0	0.1175583705815238	1.102920307405495	1.23497989817062	0.2262168480273281	44.72227599612143	0	0
0.08	-0.1407366257150813	0.04387414898354386	-0.03271083227107766	0	0.9399999999999999	0	43.32376058863787	-10.48922139408497	0	60.9757350210272	1.064227339940538	-5.188194570502308	0	0	43.32376058863787	-10.48922139408497	0	60.9757350210272	1.064227339940538	-5.188194570502308	0	0	-0.1372977395089897	-0.03160358166662442	0.03110598147447282	0	-10.81395192194558	0	75.03232756263161	44.72234306527665	0	0	-0.06010268172290812	1.093224744493198	1.117863049845492	0.3011907013436042	44.72234306527665	0	0
0.09	-0.1900270250210541	0.0488108092889937	-0.0145465713398398	0	0.9399999999999999	0	43.32422306557486	-10.48874903541951	0	60.97552413225058	1.064223659237031	-5.187957484204951	0	0	43.32422306557486	-10.48874903541951	0	60.97552413225058	1.064223659237031	-5.187957484204951	0	0	-0.1149347971030784	-0.02009918925593277	-0.02483978266289421	0	-10.81454315232221	0	75.03231869636619	44.72255503256331	0	0	0.4944145677602246	0.8766007922219833	2.068820253057348	0.1551768334091013	44.72255503256331	0	0
0.1	-0.20487147842188	0.0562692871368533	-0.01205129193902359	0	0.9399999999999999	0	43.32449032665637	-10.48847613690162	0	60.97540230803145	1.064221533003298	-5.187820543771844	0	0	43.32449032665637	-10.48847613690162	0	60.97540230803145	1.064221533003298	-5.187820543771844	0	0	-0.1063882581599084	-0.0252906336150634	-0.02869001891413258	0	-10.81488475409978	0	75.03231357263496	44.72267751134508	0	0	0.4390976626914939	0.9520768062607742	2.176908947667572	0.1620159543466904	44.72267751134508	0	0
0.11	-0.2283763047098836	0.06448875805756005	-0.004450792483459038	0	0.9399999999999999	0	43.32482583528635	-10.48813367120291	0	60.97524937677134	1.06421886384928	-5.187648722768663	0	0	43.32482583528635	-10.48813367120291	0	60.97524937677134	1.06421886384928	-5.187648722768663	0	0	-0.1002250191650297	-0.01844212187321187	-0.03337360287691046	0	-10.81531360846775	0	75.03230714051105	44.7228312292367	0	0	0.4911434656498632	1.128793195544536	2.096677843198762	0.1465926152252981	44.7228312292367	0	0
0.12	-0.2501581111694061	0.06760647256884203	0.0005911634891819244	0	0.9399999999999999	0	43.32517419353249	-10.48777790596189	0	60.97509071983006	1.064216094763274	-5.187470235063437	0	0	43.32517419353249	-10.48777790596189	0	60.97509071983006	1.064216094763274	-5.187470235063437	0	0	-0.1050497308940702	-0.000515953570976826	-0.04179164696777198	0	-10.81575865621518	0	75.03230046204779	44.7229909128671	0	0	0.573882153634098	1.229146481293599	2.203515399872628	0.1342727158003849	44.7229909128671	0	0
0.13	-0.2409699583622421	0.06914601741315525	-0.009581462803269877	0	0.9399999999999999	0	43.3255022964566	-10.48744337690949	0	60.97494112993185	1.064213483927022	-5.187302469800017	0	0	43.3255022964566	-10.48744337690949	0	60.97494112993185	1.064213483927022	-5.187302469800017	0	0	-0.152736958265924	0.01110568543119245	-0.005266889312938674	0	-10.81617816837198	0	75.03229417189597	44.72314111483175	0	0	0.6789793334027072	1.30552988892777	1.961999362428629	0.1212199498840931	44.72314111483175	0	0
0.14	-0.2443872055006611	0.07880141281205616	8.497316389621206e-05	0	0.9399999999999999	0	43.32582018687751	-10.48711887839014	0	60.97479640072085	1.064210957925767	-5.187139721786102	0	0	43.32582018687751	-10.48711887839014	0	60.97479640072085	1.064210957925767	-5.187139721786102	0	0	-0.1938993618168066	0.01322626657176188	-0.01872205518569318	0	-10.81658424285418	0	75.03228807753813	44.72328679379787	0	0	0.744315194370831	1.40906660246045	1.900717894388696	0.1134764350713071	44.72328679379787	0	0
0.15	-0.2618388391041002	0.08029615345021354	0.003463109995287301	0	0.9399999999999999	0	43.32632380833726	-10.48660586453716	0	60.97456678050835	1.064206950297029	-5.186882552338169	0	0	43.32632380833726	-10.48660586453716	0	60.97456678050835	1.064206950297029	-5.186882552338169	0	0	-0.2041098374012956	0.02951075420351296	-0.01519692196130654	0	-10.81722827759206	0	75.03227842246656	44.72351719851614	0	0	0.9758306755582808	1.390442775986109	2.130334062327698	0.09568652001825369	44.72351719851614	0	0
0.16	-0.2734723006296365	0.08071281304947214	-0.003219561195441002	0	0.9399999999999999	0	43.32663580612989	-10.48628757377451	0	60.97442479824322	1.064204472239023	-5.186722984826744	0	0	43.32663580612989	-10.48628757377451	0	60.97442479824322	1.064204472239023	-5.186722984826744	0	0	-0.2189714052849452	0.04288130869526581	0.01261663720126711	0	-10.81762676274512	0	75.03227244107684	44.72366012769127	0	0	1.067507807594185	1.409829865505066	2.201475305283293	0.08987028975357317	44.72366012769127	0	0
0.17	-0.2868800721664831	0.0883847717893667	-0.01596879479422871	0	0.9399999999999999	0	43.32696751599807	-10.48594999175629	0	60.97427357636295	1.064201832919311	-5.186553835429693	0	0	43.32696751599807	-10.48594999175629	0	60.97427357636295	1.064201832919311	-5.186553835429693	0	0	-0.2282987036607911	0.04524828837097358	0.04598640488346406	0	-10.81805098510739	0	75.03226608176881	44.72381178870798	0	0	1.110494714263238	1.497075405356375	1.989235770304036	0.08682940163182164	44.72381178870798	0	0
0.18	-0.3088485394281348	0.09544078656210744	-0.008368233812070983	0	0.9399999999999999	0	43.32732081635258	-10.48559154627823	0	60.97411215359082	1.06419901556045	-5.186374355233603	0	0	43.32732081635258	-10.48559154627823	0	60.97411215359082	1.06419901556045	-5.186374355233603	0	0	-0.2277482834443625	0.04387741544398003	0.04302188245559731	0	-10.81850356341627	0	75.03225930852591	44.72397291764275	0	0	1.387690702416077	1.798698023033265	1.665893594692182	0.07031439883249702	44.72397291764275	0	0
0.19	-0.3041099442547442	0.09084875030683276	-0.02208066185498428	0	0.9399999999999999	0	43.32784843373866	-10.48505513450142	0	60.9738715929044	1.064194816984421	-5.186105695284514	0	0	43.32784843373866	-10.48505513450142	0	60.9738715929044	1.064194816984421	-5.186105695284514	0	0	-0.2438152086199487	0.0665931811749131	0.04434948650772542	0	-10.81917848647214	0	75.03224919341015	44.72421397520485	0	0	1.24575512377695	2.212500688113233	0.7720388138368134	0.07222909832780286	44.72421397520485	0	0
0.2	-0.3125287914666284	0.08853557137597275	-0.01894121711891033	0	0.9399999999999999	0	43.32813883796523	-10.4847603733394	0	60.97373908487153	1.064192504282962	-5.185958137856907	0	0	43.32813883796523	-10.4847603733394	0	60.97373908487153	1.064192504282962	-5.185958137856907	0	0	-0.2529801235297581	0.07573511895664845	0.05760991193372274	0	-10.81955020415721	0	75.03224362597477	44.72434648788631	0	0	1.317004841889227	2.031827733030266	0.5812611687952199	0.070855207541483	44.72434648788631	0	0
0.21	-0.2974175031721375	0.09885114356441756	-0.01083954979453799	0	0.9399999999999999	0	43.32859049081977	-10.48430195172473	0	60.97353306036218	1.064188908476934	-5.185728675894437	0	0	43.32859049081977	-10.48430195172473	0	60.97353306036218	1.064188908476934	-5.185728675894437	0	0	-0.3053815380057948	0.06770691734468266	0.05430308554975005	0	-10.82012824201297	0	75.03223496718905	44.72455258635291	0	0	1.447074236135731	2.172910984349789	-0.0614827161172983	0.06570869188507908	44.72455258635291	0	0
0.22	-0.2997292375261494	0.1069588080816707	-0.006772306954905413	0	0.9399999999999999	0	43.32898728858651	-10.48390045386978	0	60.97335168695292	1.064185742913767	-5.185527856218599	0	0	43.32898728858651	-10.48390045386978	0	60.97335168695292	1.064185742913767	-5.185527856218599	0	0	-0.3155136146949878	0.06893276235118115	0.05398237346794868	0	-10.82063685936399	0	75.03222736002955	44.72473320479275	0	0	1.876746566720098	2.271868871686504	-0.3935084919066766	0.05333447900888804	44.72473320479275	0	0
0.23	-0.3046136243196592	0.1173761419742386	-0.02440872878827173	0	0.9399999999999999	0	43.32931884681024	-10.48356473272976	0	60.97320028403171	1.064183100434295	-5.185359936797913	0	0	43.32931884681024	-10.48356473272976	0	60.97320028403171	1.064183100434295	-5.185359936797913	0	0	-0.3250869241631229	0.06228712887775523	0.06439193685344498	0	-10.82106158416892	0	75.03222100360674	44.72488422454244	0	0	1.987850828680195	2.404628703963356	-0.952850884482175	0.0502402827756326	44.72488422454244	0	0
0.24	-0.3209638880902579	0.1156957918850751	-0.009277052517710513	0	0.9399999999999999	0	43.329563647447	-10.4833163965478	0	60.973088728863	1.064181153429304	-5.185235702524434	0	0	43.329563647447	-10.4833163965478	0	60.973088728863	1.064181153429304	-5.185235702524434	0	0	-0.3437014495448719	0.07468839364294312	0.01677944027521519	0	-10.82137473387137	0	75.03221631045375	44.72499590888753	0	0	2.110267638524567	2.384241744568482	-0.9261742815408908	0.04794773981384273	44.72499590888753	0	0
